<?xml version="1.0"?>
<svg xmlns="http://www.w3.org/2000/svg" xmlns:xlink="http://www.w3.org/1999/xlink" xmlns:svgjs="http://svgjs.com/svgjs" version="1.1" width="512" height="512" x="0" y="0" viewBox="0 0 512 512" style="enable-background:new 0 0 512 512" xml:space="preserve" class=""><g><g xmlns="http://www.w3.org/2000/svg"><path d="m361 150h-45v-15c0-8.284-6.716-15-15-15h-45v-32.58c17.459-6.192 30-22.865 30-42.42 0-24.813-20.187-45-45-45-19.555 0-36.228 12.542-42.42 30h-17.58c-41.355 0-75 33.645-75 75v90c0 24.813-20.187 45-45 45-8.284 0-15 6.716-15 15s6.716 15 15 15c41.355 0 75-33.645 75-75v-45h30v105c0 8.284 6.716 15 15 15h15v212h-135c-8.284 0-15 6.716-15 15s6.716 15 15 15h390c8.284 0 15-6.716 15-15s-6.716-15-15-15h-165v-212h15c8.284 0 15-6.716 15-15v-15h45c8.271 0 15 6.729 15 15v30c0 8.284 6.716 15 15 15h60c8.284 0 15-6.716 15-15v-30c0-57.897-47.103-105-105-105zm-120-120c8.271 0 15 6.729 15 15s-6.729 15-15 15-15-6.729-15-15 6.729-15 15-15zm-105 75c0-24.813 20.187-45 45-45h17.58c4.527 12.764 14.656 22.893 27.42 27.42v32.58c-10.889 0-79.039 0-90 0zm120 377h-30v-212h30zm30-242h-90v-90h90zm150 30h-30v-15c0-24.813-20.187-45-45-45h-45v-30h45c41.355 0 75 33.645 75 75z" fill="#ffffff" data-original="#000000" style="" class=""/><path d="m433.989 337.499c-2.679-4.641-7.631-7.499-12.989-7.499s-10.31 2.858-12.989 7.499l-25.997 45.019c-3.935 6.812-6.014 14.586-6.014 22.482 0 24.813 20.187 45 45 45s45-20.187 45-45c0-7.896-2.079-15.67-6.014-22.482zm-12.989 82.501c-8.271 0-15-6.729-15-15 0-6.709 3.29-8.668 15-30.004 11.964 21.799 15 23.318 15 30.004 0 8.271-6.729 15-15 15z" fill="#ffffff" data-original="#000000" style="" class=""/></g></g></svg>
